<?xml version="1.0" encoding="utf-8"?>
<!-- Generator: Adobe Illustrator 18.1.0, SVG Export Plug-In . SVG Version: 6.00 Build 0)  -->
<!DOCTYPE svg PUBLIC "-//W3C//DTD SVG 1.1//EN" "http://www.w3.org/Graphics/SVG/1.1/DTD/svg11.dtd">
<svg version="1.1" id="icon" xmlns="http://www.w3.org/2000/svg" xmlns:xlink="http://www.w3.org/1999/xlink" x="0px" y="0px"
	 viewBox="-214.5 387.5 19 19" enable-background="new -214.5 387.5 19 19" xml:space="preserve">
<path d="M-205,387.5c-5.2,0-9.5,4.3-9.5,9.5s4.3,9.5,9.5,9.5c5.2,0,9.5-4.3,9.5-9.5S-199.8,387.5-205,387.5z M-203.6,403
	c0,0.2-0.1,0.3-0.3,0.3h-2.1c-0.2,0-0.3-0.1-0.3-0.3v-2.1c0-0.2,0.1-0.3,0.3-0.3h2.1c0.2,0,0.3,0.1,0.3,0.3V403z M-201.6,395.9
	c-0.2,0.3-0.6,0.6-1.1,1.1l-0.5,0.4c-0.2,0.2-0.4,0.4-0.4,0.6c0,0.1-0.1,0.3-0.1,0.8c0,0.2-0.1,0.3-0.3,0.3h-1.9
	c-0.1,0-0.2,0-0.2-0.1c-0.1-0.1-0.1-0.1-0.1-0.2c0-0.9,0.1-1.4,0.3-1.8c0.1-0.4,0.5-0.8,1.1-1.2l0.5-0.4c0.1-0.1,0.3-0.2,0.3-0.4
	c0.2-0.2,0.2-0.4,0.2-0.7c0-0.3-0.1-0.6-0.3-0.8c-0.1-0.2-0.5-0.3-0.9-0.3c-0.4,0-0.7,0.1-0.9,0.4c-0.2,0.3-0.3,0.6-0.3,1
	c0,0.2-0.1,0.3-0.3,0.3h-2.1c-0.1,0-0.2,0-0.2-0.1c-0.1-0.1-0.1-0.1-0.1-0.2c0.1-1.5,0.6-2.5,1.6-3.2c0.6-0.4,1.4-0.6,2.3-0.6
	c1.1,0,2.1,0.3,2.9,0.8c0.8,0.6,1.2,1.4,1.2,2.6C-201,394.8-201.2,395.4-201.6,395.9z"/>
</svg>
