<?xml version="1.0" encoding="utf-8"?>
<!-- Generator: Adobe Illustrator 18.1.0, SVG Export Plug-In . SVG Version: 6.00 Build 0)  -->
<!DOCTYPE svg PUBLIC "-//W3C//DTD SVG 1.1//EN" "http://www.w3.org/Graphics/SVG/1.1/DTD/svg11.dtd">
<svg version="1.1" id="Layer_1" xmlns="http://www.w3.org/2000/svg" xmlns:xlink="http://www.w3.org/1999/xlink" x="0px" y="0px"
	 viewBox="-210.5 392 11 10" enable-background="new -210.5 392 11 10" xml:space="preserve">
<path d="M-199.7,393.9c-0.3-0.7-0.8-1.3-1.6-1.6c-0.7-0.3-1.4-0.4-2.1-0.2c-0.7,0.2-1.3,0.7-1.7,1.3c-0.4-0.6-1-1.1-1.7-1.3
	s-1.4-0.2-2.1,0.2c-0.8,0.4-1.3,0.9-1.6,1.6c-0.3,0.7-0.3,1.5,0.1,2.3c0.7,1.7,5.2,5.7,5.2,5.8c0-0.1,4.5-4.1,5.2-5.8
	C-199.4,395.4-199.4,394.6-199.7,393.9z"/>
</svg>
